# Blender v2.80 (sub 75) OBJ File: 'boostBox.blend'
# www.blender.org
mtllib boostBox.mtl
o Cube
v 0.767002 2.008614 -0.827862
v 0.630392 1.783506 -0.630392
v 0.836816 1.375921 -0.836816
v 0.774708 1.842025 -0.806847
v -0.767002 2.008614 -0.827862
v 0.000000 2.008614 -0.827862
v -0.630392 1.783506 -0.630392
v -0.836816 1.375921 -0.836816
v 0.000000 1.783506 -0.630392
v 0.000000 1.375921 -0.836816
v -0.774708 1.842025 -0.806847
v 0.000000 1.842025 -0.806847
v 0.767002 2.008614 0.827862
v 0.767002 2.008614 0.000000
v 0.630392 1.783506 0.630392
v 0.836816 1.375921 0.836816
v 0.630392 1.783506 0.000000
v 0.836816 1.375921 0.000000
v 0.774708 1.842025 0.806847
v 0.774708 1.842025 0.000000
v -0.767002 2.008614 0.827862
v -0.767002 2.008614 0.000000
v 0.000000 2.008614 0.827862
v 0.000000 2.008614 0.000000
v -0.630392 1.783506 0.630392
v -0.836816 1.375921 0.836816
v -0.630392 1.783506 0.000000
v -0.836816 1.375921 0.000000
v 0.000000 1.783506 0.630392
v 0.000000 1.375921 0.836816
v -0.774708 1.842025 0.806847
v -0.774708 1.842025 0.000000
v 0.000000 1.842025 0.806847
v 0.767002 0.008613 -0.827862
v 1.000000 1.008613 -1.000000
v 0.630392 0.233721 -0.630392
v 0.836816 0.641306 -0.836816
v 0.774708 0.175202 -0.806847
v -0.767002 0.008613 -0.827862
v -1.000000 1.008613 -1.000000
v 0.000000 0.008613 -0.827862
v 0.000000 1.008613 -1.000000
v -0.630392 0.233721 -0.630392
v -0.836816 0.641306 -0.836816
v 0.000000 0.233721 -0.630392
v 0.000000 0.641306 -0.836816
v -0.774708 0.175202 -0.806847
v 0.000000 0.175202 -0.806847
v 0.767002 0.008613 0.827862
v 1.000000 1.008613 1.000000
v 0.767002 0.008613 0.000000
v 1.000000 1.008613 0.000000
v 0.630392 0.233721 0.630392
v 0.836816 0.641306 0.836816
v 0.630392 0.233721 0.000000
v 0.836816 0.641306 0.000000
v 0.774708 0.175202 0.806847
v 0.774708 0.175202 0.000000
v -0.767002 0.008613 0.827862
v -1.000000 1.008613 1.000000
v -0.767002 0.008613 0.000000
v -1.000000 1.008613 0.000000
v 0.000000 0.008613 0.827862
v 0.000000 1.008613 1.000000
v 0.000000 0.008613 0.000000
v -0.630392 0.233721 0.630392
v -0.836816 0.641306 0.836816
v -0.630392 0.233721 0.000000
v -0.836816 0.641306 0.000000
v 0.000000 0.233721 0.630392
v 0.000000 0.641306 0.836816
v -0.774708 0.175202 0.806847
v -0.774708 0.175202 0.000000
v 0.000000 0.175202 0.806847
vt 0.967686 0.465141
vt 0.967686 0.550122
vt 0.579495 0.550122
vt 0.575595 0.465141
vt 0.495092 0.560758
vt 0.579495 0.969115
vt 0.495092 0.969115
vt 0.967686 0.969115
vt 0.038267 0.332052
vt 0.200193 0.396891
vt 0.209453 0.732648
vt 0.045871 0.736420
vt 0.386812 0.471619
vt 0.394563 0.727030
vt 0.322859 0.044687
vt 0.438629 0.160320
vt 0.568703 0.292145
vt 0.416275 0.650064
vt 0.416275 0.969115
vt 0.967686 0.371052
vt 0.648635 0.371052
vt 0.575595 0.465141
vt 0.579495 0.550122
vt 0.495092 0.560758
vt 0.495092 0.969115
vt 0.579495 0.969115
vt 0.038267 0.332052
vt 0.045871 0.736420
vt 0.209453 0.732648
vt 0.200193 0.396891
vt 0.394563 0.727030
vt 0.386812 0.471619
vt 0.416275 0.650064
vt 0.416275 0.969115
vt 0.648635 0.371052
vt 0.967686 0.465141
vt 0.575595 0.465141
vt 0.579495 0.550122
vt 0.967686 0.550122
vt 0.495092 0.560758
vt 0.038267 0.332052
vt 0.200193 0.396891
vt 0.386812 0.471619
vt 0.322859 0.044687
vt 0.438629 0.160320
vt 0.568703 0.292145
vt 0.416275 0.650064
vt 0.967686 0.371052
vt 0.648635 0.371052
vt 0.579495 0.550122
vt 0.575595 0.465141
vt 0.495092 0.560758
vt 0.038267 0.332052
vt 0.200193 0.396891
vt 0.386812 0.471619
vt 0.416275 0.650064
vt 0.648635 0.371052
vt 0.967686 0.465141
vt 0.575595 0.465141
vt 0.579495 0.550122
vt 0.967686 0.550122
vt 0.495092 0.560758
vt 0.495092 0.969115
vt 0.579495 0.969115
vt 0.967686 0.969115
vt 0.209453 0.732648
vt 0.200193 0.396891
vt 0.394563 0.727030
vt 0.386812 0.471619
vt 0.438629 0.160320
vt 0.568703 0.292145
vt 0.416275 0.650064
vt 0.416275 0.969115
vt 0.967686 0.371052
vt 0.648635 0.371052
vt 0.579495 0.550122
vt 0.575595 0.465141
vt 0.495092 0.560758
vt 0.579495 0.969115
vt 0.495092 0.969115
vt 0.200193 0.396891
vt 0.209453 0.732648
vt 0.386812 0.471619
vt 0.394563 0.727030
vt 0.416275 0.650064
vt 0.416275 0.969115
vt 0.648635 0.371052
vt 0.967686 0.465141
vt 0.967686 0.550122
vt 0.579495 0.550122
vt 0.575595 0.465141
vt 0.495092 0.560758
vt 0.200193 0.396891
vt 0.386812 0.471619
vt 0.438629 0.160320
vt 0.568703 0.292145
vt 0.416275 0.650064
vt 0.967686 0.371052
vt 0.648635 0.371052
vt 0.575595 0.465141
vt 0.579495 0.550122
vt 0.495092 0.560758
vt 0.200193 0.396891
vt 0.386812 0.471619
vt 0.416275 0.650064
vt 0.648635 0.371052
vn 0.0000 -0.1252 -0.9921
vn 0.9989 0.0462 0.0000
vn 0.0000 1.0000 0.0000
vn 0.9139 0.4060 0.0000
vn 0.8921 0.4518 0.0000
vn 0.0000 0.4060 -0.9139
vn 0.0000 0.4518 -0.8921
vn 0.3758 -0.9267 0.0000
vn 0.0000 -0.9492 -0.3148
vn -0.9989 0.0462 0.0000
vn -0.9139 0.4060 0.0000
vn -0.8921 0.4518 0.0000
vn -0.3758 -0.9267 0.0000
vn 0.0000 -0.1252 0.9921
vn 0.0000 0.4060 0.9139
vn 0.0000 0.4518 0.8921
vn 0.0000 -0.9492 0.3148
vn 0.0000 0.1252 -0.9921
vn 0.9989 -0.0462 0.0000
vn 0.0000 -1.0000 0.0000
vn 0.9139 -0.4060 0.0000
vn 0.8921 -0.4518 0.0000
vn 0.0000 -0.4060 -0.9139
vn 0.0000 -0.4518 -0.8921
vn 0.3758 0.9267 0.0000
vn 0.0000 0.9492 -0.3148
vn -0.9989 -0.0462 0.0000
vn -0.9139 -0.4060 0.0000
vn -0.8921 -0.4518 0.0000
vn -0.3758 0.9267 0.0000
vn 0.0000 0.1252 0.9921
vn 0.0000 -0.4060 0.9139
vn 0.0000 -0.4518 0.8921
vn 0.0000 0.9492 0.3148
usemtl Material
s off
f 12/1/1 6/2/1 1/3/1 4/4/1
f 4/5/2 1/3/2 14/6/2 20/7/2
f 1/3/3 6/2/3 24/8/3 14/6/3
f 35/9/4 3/10/4 18/11/4 52/12/4
f 3/10/5 2/13/5 17/14/5 18/11/5
f 42/15/6 10/16/6 3/10/6 35/9/6
f 10/16/7 9/17/7 2/13/7 3/10/7
f 2/18/8 4/5/8 20/7/8 17/19/8
f 9/20/9 12/1/9 4/4/9 2/21/9
f 12/1/1 11/22/1 5/23/1 6/2/1
f 11/24/10 32/25/10 22/26/10 5/23/10
f 5/23/3 22/26/3 24/8/3 6/2/3
f 40/27/11 62/28/11 28/29/11 8/30/11
f 8/30/12 28/29/12 27/31/12 7/32/12
f 42/15/6 40/27/6 8/30/6 10/16/6
f 10/16/7 8/30/7 7/32/7 9/17/7
f 7/33/13 27/34/13 32/25/13 11/24/13
f 9/20/9 7/35/9 11/22/9 12/1/9
f 33/36/14 19/37/14 13/38/14 23/39/14
f 19/40/2 20/7/2 14/6/2 13/38/2
f 13/38/3 14/6/3 24/8/3 23/39/3
f 50/41/4 52/12/4 18/11/4 16/42/4
f 16/42/5 18/11/5 17/14/5 15/43/5
f 64/44/15 50/41/15 16/42/15 30/45/15
f 30/45/16 16/42/16 15/43/16 29/46/16
f 15/47/8 17/19/8 20/7/8 19/40/8
f 29/48/17 15/49/17 19/37/17 33/36/17
f 33/36/14 23/39/14 21/50/14 31/51/14
f 31/52/10 21/50/10 22/26/10 32/25/10
f 21/50/3 23/39/3 24/8/3 22/26/3
f 60/53/11 26/54/11 28/29/11 62/28/11
f 26/54/12 25/55/12 27/31/12 28/29/12
f 64/44/15 30/45/15 26/54/15 60/53/15
f 30/45/16 29/46/16 25/55/16 26/54/16
f 25/56/13 31/52/13 32/25/13 27/34/13
f 29/48/17 33/36/17 31/51/17 25/57/17
f 48/58/18 38/59/18 34/60/18 41/61/18
f 38/62/19 58/63/19 51/64/19 34/60/19
f 34/60/20 51/64/20 65/65/20 41/61/20
f 35/9/21 52/12/21 56/66/21 37/67/21
f 37/67/22 56/66/22 55/68/22 36/69/22
f 42/15/23 35/9/23 37/67/23 46/70/23
f 46/70/24 37/67/24 36/69/24 45/71/24
f 36/72/25 55/73/25 58/63/25 38/62/25
f 45/74/26 36/75/26 38/59/26 48/58/26
f 48/58/18 41/61/18 39/76/18 47/77/18
f 47/78/27 39/76/27 61/79/27 73/80/27
f 39/76/20 41/61/20 65/65/20 61/79/20
f 40/27/28 44/81/28 69/82/28 62/28/28
f 44/81/29 43/83/29 68/84/29 69/82/29
f 42/15/23 46/70/23 44/81/23 40/27/23
f 46/70/24 45/71/24 43/83/24 44/81/24
f 43/85/30 47/78/30 73/80/30 68/86/30
f 45/74/26 48/58/26 47/77/26 43/87/26
f 74/88/31 63/89/31 49/90/31 57/91/31
f 57/92/19 49/90/19 51/64/19 58/63/19
f 49/90/20 63/89/20 65/65/20 51/64/20
f 50/41/21 54/93/21 56/66/21 52/12/21
f 54/93/22 53/94/22 55/68/22 56/66/22
f 64/44/32 71/95/32 54/93/32 50/41/32
f 71/95/33 70/96/33 53/94/33 54/93/33
f 53/97/25 57/92/25 58/63/25 55/73/25
f 70/98/34 74/88/34 57/91/34 53/99/34
f 74/88/31 72/100/31 59/101/31 63/89/31
f 72/102/27 73/80/27 61/79/27 59/101/27
f 59/101/20 61/79/20 65/65/20 63/89/20
f 60/53/28 62/28/28 69/82/28 67/103/28
f 67/103/29 69/82/29 68/84/29 66/104/29
f 64/44/32 60/53/32 67/103/32 71/95/32
f 71/95/33 67/103/33 66/104/33 70/96/33
f 66/105/30 68/86/30 73/80/30 72/102/30
f 70/98/34 66/106/34 72/100/34 74/88/34
