# Wavefront Obj file
# 
# verts: 130 uv-s: 222
mtllib Straight_Track.mtl

g Straight_Track
#pivot 0.000000 0.000000 0.000000

v -11.250000 0.500000 0.000000
v -5.625000 0.500000 0.000000
v -5.625000 0.500000 -2.250000
v -11.250000 0.500000 -2.250000
v 0.000000 0.500000 0.000000
v 0.000000 0.500000 -2.250000
v 5.625000 0.500000 0.000000
v 5.625000 0.500000 -2.250000
v 11.250000 0.500000 0.000000
v 11.250000 0.500000 -2.250000
v -5.625000 0.500001 -4.500000
v -11.250000 0.500001 -4.500000
v 0.000000 0.500001 -4.500000
v 5.625000 0.500001 -4.500000
v 11.250000 0.500001 -4.500000
v -5.625000 0.500001 -6.750000
v -11.250000 0.500001 -6.750000
v 0.000000 0.500001 -6.750000
v 5.625000 0.500001 -6.750000
v 11.250000 0.500001 -6.750000
v -5.625000 0.500001 -9.000000
v -11.250000 0.500001 -9.000000
v 0.000000 0.500001 -9.000000
v 5.625000 0.500001 -9.000000
v 11.250000 0.500001 -9.000000
v -11.250000 2.219514 -9.000000
v -5.625000 2.219514 -9.000000
v -5.625000 2.219515 -9.806662
v -11.250000 2.219515 -9.806662
v 0.000000 2.219514 -9.000000
v 0.000000 2.219515 -9.806662
v 5.625000 2.219514 -9.000000
v 5.625000 2.219515 -9.806662
v 11.250000 2.219514 -9.000000
v 11.250000 2.219515 -9.806662
v -11.250000 0.500002 -9.806662
v -5.625000 0.500002 -9.806662
v -5.625000 -0.499998 -9.806662
v -11.250000 -0.499998 -9.806662
v 0.000000 0.500002 -9.806662
v 0.000000 -0.499998 -9.806662
v 5.625000 0.500002 -9.806662
v 5.625000 -0.499998 -9.806662
v 11.250000 0.500002 -9.806662
v 11.250000 -0.499998 -9.806662
v -5.625000 -0.499999 -9.000000
v -11.250000 -0.499999 -9.000000
v 0.000000 -0.499999 -9.000000
v 5.625000 -0.499999 -9.000000
v 11.250000 -0.499999 -9.000000
v -5.625000 -0.499999 -6.750000
v -11.250000 -0.499999 -6.750000
v 0.000000 -0.499999 -6.750000
v 5.625000 -0.499999 -6.750000
v 11.250000 -0.499999 -6.750000
v -5.625000 -0.499999 -4.500000
v -11.250000 -0.499999 -4.500000
v 0.000000 -0.499999 -4.500000
v 5.625000 -0.499999 -4.500000
v 11.250000 -0.499999 -4.500000
v -5.625000 -0.500000 -2.250000
v -11.250000 -0.500000 -2.250000
v 0.000000 -0.500000 -2.250000
v 5.625000 -0.500000 -2.250000
v 11.250000 -0.500000 -2.250000
v -5.625000 -0.500000 0.000000
v -11.250000 -0.500000 0.000000
v 0.000000 -0.500000 0.000000
v 5.625000 -0.500000 0.000000
v 11.250000 -0.500000 0.000000
v -11.250000 0.500000 2.250000
v -5.625000 0.500000 2.250000
v 0.000000 0.500000 2.250000
v 5.625000 0.500000 2.250000
v 11.250000 0.500000 2.250000
v -11.250000 0.499999 4.500000
v -5.625000 0.499999 4.500000
v 0.000000 0.499999 4.500000
v 5.625000 0.499999 4.500000
v 11.250000 0.499999 4.500000
v -11.250000 0.499999 6.750000
v -5.625000 0.499999 6.750000
v 0.000000 0.499999 6.750000
v 5.625000 0.499999 6.750000
v 11.250000 0.499999 6.750000
v -11.250000 0.499999 9.000000
v -5.625000 0.499999 9.000000
v 0.000000 0.499999 9.000000
v 5.625000 0.499999 9.000000
v 11.250000 0.499999 9.000000
v -11.250000 2.219512 9.000000
v -11.250000 2.219511 9.806662
v -5.625000 2.219511 9.806662
v -5.625000 2.219512 9.000000
v 0.000000 2.219511 9.806662
v 0.000000 2.219512 9.000000
v 5.625000 2.219511 9.806662
v 5.625000 2.219512 9.000000
v 11.250000 2.219511 9.806662
v 11.250000 2.219512 9.000000
v -11.250000 0.499998 9.806662
v -11.250000 -0.500002 9.806662
v -5.625000 -0.500002 9.806662
v -5.625000 0.499998 9.806662
v 0.000000 -0.500002 9.806662
v 0.000000 0.499998 9.806662
v 5.625000 -0.500002 9.806662
v 5.625000 0.499998 9.806662
v 11.250000 -0.500002 9.806662
v 11.250000 0.499998 9.806662
v -11.250000 -0.500001 9.000000
v -5.625000 -0.500001 9.000000
v 0.000000 -0.500001 9.000000
v 5.625000 -0.500001 9.000000
v 11.250000 -0.500001 9.000000
v -11.250000 -0.500001 6.750000
v -5.625000 -0.500001 6.750000
v 0.000000 -0.500001 6.750000
v 5.625000 -0.500001 6.750000
v 11.250000 -0.500001 6.750000
v -11.250000 -0.500001 4.500000
v -5.625000 -0.500001 4.500000
v 0.000000 -0.500001 4.500000
v 5.625000 -0.500001 4.500000
v 11.250000 -0.500001 4.500000
v -11.250000 -0.500000 2.250000
v -5.625000 -0.500000 2.250000
v 0.000000 -0.500000 2.250000
v 5.625000 -0.500000 2.250000
v 11.250000 -0.500000 2.250000
# 130 positions

vt 0.201345 0.995000
vt 0.201345 0.872285
vt 0.152259 0.872285
vt 0.152259 0.995000
vt 0.201345 0.749569
vt 0.152259 0.749569
vt 0.201345 0.626854
vt 0.152259 0.626854
vt 0.201345 0.504138
vt 0.152259 0.504138
vt 0.103172 0.872285
vt 0.103172 0.995000
vt 0.103172 0.749569
vt 0.103172 0.626854
vt 0.103172 0.504138
vt 0.054086 0.872285
vt 0.054086 0.995000
vt 0.054086 0.749569
vt 0.054086 0.626854
vt 0.054086 0.504138
vt 0.005000 0.872285
vt 0.005000 0.995000
vt 0.005000 0.749569
vt 0.005000 0.626854
vt 0.005000 0.504138
vt 0.521737 0.495862
vt 0.521737 0.373146
vt 0.504138 0.373146
vt 0.504138 0.495862
vt 0.521737 0.250431
vt 0.504138 0.250431
vt 0.521737 0.127715
vt 0.504138 0.127715
vt 0.521737 0.005000
vt 0.504138 0.005000
vt 0.495862 0.345761
vt 0.373146 0.345761
vt 0.373146 0.323945
vt 0.495862 0.323945
vt 0.250431 0.345761
vt 0.250431 0.323945
vt 0.127715 0.345761
vt 0.127715 0.323945
vt 0.005000 0.345761
vt 0.005000 0.323945
vt 0.832572 0.504138
vt 0.832572 0.626854
vt 0.814974 0.626854
vt 0.814974 0.504138
vt 0.832572 0.749569
vt 0.814974 0.749569
vt 0.832572 0.872285
vt 0.814974 0.872285
vt 0.832572 0.995000
vt 0.814974 0.995000
vt 0.765887 0.626854
vt 0.765887 0.504138
vt 0.765887 0.749569
vt 0.765887 0.872285
vt 0.765887 0.995000
vt 0.716801 0.626854
vt 0.716801 0.504138
vt 0.716801 0.749569
vt 0.716801 0.872285
vt 0.716801 0.995000
vt 0.667715 0.626854
vt 0.667715 0.504138
vt 0.667715 0.749569
vt 0.667715 0.872285
vt 0.667715 0.995000
vt 0.618629 0.626854
vt 0.618629 0.504138
vt 0.618629 0.749569
vt 0.618629 0.872285
vt 0.618629 0.995000
vt 0.552926 0.478263
vt 0.552926 0.495862
vt 0.574742 0.495862
vt 0.574742 0.478263
vt 0.552926 0.429177
vt 0.574742 0.429177
vt 0.552926 0.380091
vt 0.574742 0.380091
vt 0.552926 0.331005
vt 0.574742 0.331005
vt 0.552926 0.281919
vt 0.574742 0.281919
vt 0.679808 0.067976
vt 0.679808 0.085574
vt 0.657992 0.085574
vt 0.657992 0.067976
vt 0.679808 0.134660
vt 0.657992 0.134660
vt 0.679808 0.183746
vt 0.657992 0.183746
vt 0.679808 0.232833
vt 0.657992 0.232833
vt 0.679808 0.281919
vt 0.657992 0.281919
vt 0.005000 0.428309
vt 0.127715 0.428309
vt 0.127715 0.390796
vt 0.005000 0.390796
vt 0.495862 0.383274
vt 0.373146 0.383274
vt 0.620479 0.085574
vt 0.620479 0.067976
vt 0.250431 0.428309
vt 0.250431 0.390796
vt 0.250431 0.383274
vt 0.373146 0.428309
vt 0.373146 0.390796
vt 0.127715 0.383274
vt 0.495862 0.428309
vt 0.495862 0.390796
vt 0.612255 0.495862
vt 0.612255 0.478263
vt 0.005000 0.383274
vt 0.250431 0.995000
vt 0.250431 0.872285
vt 0.250431 0.749569
vt 0.250431 0.626854
vt 0.250431 0.504138
vt 0.299517 0.995000
vt 0.299517 0.872285
vt 0.299517 0.749569
vt 0.299517 0.626854
vt 0.299517 0.504138
vt 0.348603 0.995000
vt 0.348603 0.872285
vt 0.348603 0.749569
vt 0.348603 0.626854
vt 0.348603 0.504138
vt 0.397689 0.995000
vt 0.397689 0.872285
vt 0.397689 0.749569
vt 0.397689 0.626854
vt 0.397689 0.504138
vt 0.528532 0.495862
vt 0.546131 0.495862
vt 0.546131 0.373146
vt 0.528532 0.373146
vt 0.546131 0.250431
vt 0.528532 0.250431
vt 0.546131 0.127715
vt 0.528532 0.127715
vt 0.546131 0.005000
vt 0.528532 0.005000
vt 0.005000 0.474046
vt 0.005000 0.495862
vt 0.127715 0.495862
vt 0.127715 0.474046
vt 0.250431 0.495862
vt 0.250431 0.474046
vt 0.373146 0.495862
vt 0.373146 0.474046
vt 0.495862 0.495862
vt 0.495862 0.474046
vt 0.404686 0.504138
vt 0.422284 0.504138
vt 0.422284 0.626854
vt 0.404686 0.626854
vt 0.422284 0.749569
vt 0.404686 0.749569
vt 0.422284 0.872285
vt 0.404686 0.872285
vt 0.422284 0.995000
vt 0.404686 0.995000
vt 0.471370 0.504138
vt 0.471370 0.626854
vt 0.471370 0.749569
vt 0.471370 0.872285
vt 0.471370 0.995000
vt 0.520456 0.504138
vt 0.520456 0.626854
vt 0.520456 0.749569
vt 0.520456 0.872285
vt 0.520456 0.995000
vt 0.569543 0.504138
vt 0.569543 0.626854
vt 0.569543 0.749569
vt 0.569543 0.872285
vt 0.569543 0.995000
vt 0.552926 0.085574
vt 0.574742 0.085574
vt 0.574742 0.067976
vt 0.552926 0.067976
vt 0.552926 0.134660
vt 0.574742 0.134660
vt 0.552926 0.183746
vt 0.574742 0.183746
vt 0.552926 0.232833
vt 0.574742 0.232833
vt 0.679808 0.495862
vt 0.657992 0.495862
vt 0.657992 0.478263
vt 0.679808 0.478263
vt 0.657992 0.429177
vt 0.679808 0.429177
vt 0.657992 0.380091
vt 0.679808 0.380091
vt 0.657992 0.331005
vt 0.679808 0.331005
vt 0.495862 0.278208
vt 0.495862 0.315722
vt 0.373146 0.315722
vt 0.373146 0.278208
vt 0.127715 0.436533
vt 0.005000 0.436533
vt 0.620479 0.495862
vt 0.620479 0.478263
vt 0.250431 0.315722
vt 0.250431 0.278208
vt 0.250431 0.436533
vt 0.127715 0.315722
vt 0.127715 0.278208
vt 0.373146 0.436533
vt 0.005000 0.315722
vt 0.005000 0.278208
vt 0.612255 0.085574
vt 0.612255 0.067976
vt 0.495862 0.436533
# 222 texture coordinates

vn 0.000000 1.000000 0.000000
vn 0.000000 0.000000 -1.000000
vn 0.000000 -1.000000 -0.000000
vn 1.000000 0.000000 0.000000
vn -1.000000 0.000000 0.000000
vn 0.000000 0.000000 1.000000
# 6 normals

usemtl initialShadingGroup
f 1/1/1 2/2/1 3/3/1 4/4/1
f 2/2/1 5/5/1 6/6/1 3/3/1
f 5/5/1 7/7/1 8/8/1 6/6/1
f 7/7/1 9/9/1 10/10/1 8/8/1
f 4/4/1 3/3/1 11/11/1 12/12/1
f 3/3/1 6/6/1 13/13/1 11/11/1
f 6/6/1 8/8/1 14/14/1 13/13/1
f 8/8/1 10/10/1 15/15/1 14/14/1
f 12/12/1 11/11/1 16/16/1 17/17/1
f 11/11/1 13/13/1 18/18/1 16/16/1
f 13/13/1 14/14/1 19/19/1 18/18/1
f 14/14/1 15/15/1 20/20/1 19/19/1
f 17/17/1 16/16/1 21/21/1 22/22/1
f 16/16/1 18/18/1 23/23/1 21/21/1
f 18/18/1 19/19/1 24/24/1 23/23/1
f 19/19/1 20/20/1 25/25/1 24/24/1
f 26/26/1 27/27/1 28/28/1 29/29/1
f 27/27/1 30/30/1 31/31/1 28/28/1
f 30/30/1 32/32/1 33/33/1 31/31/1
f 32/32/1 34/34/1 35/35/1 33/33/1
f 36/36/2 37/37/2 38/38/2 39/39/2
f 37/37/2 40/40/2 41/41/2 38/38/2
f 40/40/2 42/42/2 43/43/2 41/41/2
f 42/42/2 44/44/2 45/45/2 43/43/2
f 39/46/3 38/47/3 46/48/3 47/49/3
f 38/47/3 41/50/3 48/51/3 46/48/3
f 41/50/3 43/52/3 49/53/3 48/51/3
f 43/52/3 45/54/3 50/55/3 49/53/3
f 47/49/3 46/48/3 51/56/3 52/57/3
f 46/48/3 48/51/3 53/58/3 51/56/3
f 48/51/3 49/53/3 54/59/3 53/58/3
f 49/53/3 50/55/3 55/60/3 54/59/3
f 52/57/3 51/56/3 56/61/3 57/62/3
f 51/56/3 53/58/3 58/63/3 56/61/3
f 53/58/3 54/59/3 59/64/3 58/63/3
f 54/59/3 55/60/3 60/65/3 59/64/3
f 57/62/3 56/61/3 61/66/3 62/67/3
f 56/61/3 58/63/3 63/68/3 61/66/3
f 58/63/3 59/64/3 64/69/3 63/68/3
f 59/64/3 60/65/3 65/70/3 64/69/3
f 62/67/3 61/66/3 66/71/3 67/72/3
f 61/66/3 63/68/3 68/73/3 66/71/3
f 63/68/3 64/69/3 69/74/3 68/73/3
f 64/69/3 65/70/3 70/75/3 69/74/3
f 50/76/4 45/77/4 44/78/4 25/79/4
f 55/80/4 50/76/4 25/79/4 20/81/4
f 60/82/4 55/80/4 20/81/4 15/83/4
f 65/84/4 60/82/4 15/83/4 10/85/4
f 70/86/4 65/84/4 10/85/4 9/87/4
f 39/88/5 47/89/5 22/90/5 36/91/5
f 47/89/5 52/92/5 17/93/5 22/90/5
f 52/92/5 57/94/5 12/95/5 17/93/5
f 57/94/5 62/96/5 4/97/5 12/95/5
f 62/96/5 67/98/5 1/99/5 4/97/5
f 22/100/6 21/101/6 27/102/6 26/103/6
f 37/37/2 36/36/2 29/104/2 28/105/2
f 36/91/5 22/90/5 26/106/5 29/107/5
f 21/101/6 23/108/6 30/109/6 27/102/6
f 40/40/2 37/37/2 28/105/2 31/110/2
f 23/108/6 24/111/6 32/112/6 30/109/6
f 42/42/2 40/40/2 31/110/2 33/113/2
f 24/111/6 25/114/6 34/115/6 32/112/6
f 25/79/4 44/78/4 35/116/4 34/117/4
f 44/44/2 42/42/2 33/113/2 35/118/2
f 1/1/1 71/119/1 72/120/1 2/2/1
f 2/2/1 72/120/1 73/121/1 5/5/1
f 5/5/1 73/121/1 74/122/1 7/7/1
f 7/7/1 74/122/1 75/123/1 9/9/1
f 71/119/1 76/124/1 77/125/1 72/120/1
f 72/120/1 77/125/1 78/126/1 73/121/1
f 73/121/1 78/126/1 79/127/1 74/122/1
f 74/122/1 79/127/1 80/128/1 75/123/1
f 76/124/1 81/129/1 82/130/1 77/125/1
f 77/125/1 82/130/1 83/131/1 78/126/1
f 78/126/1 83/131/1 84/132/1 79/127/1
f 79/127/1 84/132/1 85/133/1 80/128/1
f 81/129/1 86/134/1 87/135/1 82/130/1
f 82/130/1 87/135/1 88/136/1 83/131/1
f 83/131/1 88/136/1 89/137/1 84/132/1
f 84/132/1 89/137/1 90/138/1 85/133/1
f 91/139/1 92/140/1 93/141/1 94/142/1
f 94/142/1 93/141/1 95/143/1 96/144/1
f 96/144/1 95/143/1 97/145/1 98/146/1
f 98/146/1 97/145/1 99/147/1 100/148/1
f 101/149/6 102/150/6 103/151/6 104/152/6
f 104/152/6 103/151/6 105/153/6 106/154/6
f 106/154/6 105/153/6 107/155/6 108/156/6
f 108/156/6 107/155/6 109/157/6 110/158/6
f 102/159/3 111/160/3 112/161/3 103/162/3
f 103/162/3 112/161/3 113/163/3 105/164/3
f 105/164/3 113/163/3 114/165/3 107/166/3
f 107/166/3 114/165/3 115/167/3 109/168/3
f 111/160/3 116/169/3 117/170/3 112/161/3
f 112/161/3 117/170/3 118/171/3 113/163/3
f 113/163/3 118/171/3 119/172/3 114/165/3
f 114/165/3 119/172/3 120/173/3 115/167/3
f 116/169/3 121/174/3 122/175/3 117/170/3
f 117/170/3 122/175/3 123/176/3 118/171/3
f 118/171/3 123/176/3 124/177/3 119/172/3
f 119/172/3 124/177/3 125/178/3 120/173/3
f 121/174/3 126/179/3 127/180/3 122/175/3
f 122/175/3 127/180/3 128/181/3 123/176/3
f 123/176/3 128/181/3 129/182/3 124/177/3
f 124/177/3 129/182/3 130/183/3 125/178/3
f 126/179/3 67/72/3 66/71/3 127/180/3
f 127/180/3 66/71/3 68/73/3 128/181/3
f 128/181/3 68/73/3 69/74/3 129/182/3
f 129/182/3 69/74/3 70/75/3 130/183/3
f 115/184/4 90/185/4 110/186/4 109/187/4
f 120/188/4 85/189/4 90/185/4 115/184/4
f 125/190/4 80/191/4 85/189/4 120/188/4
f 130/192/4 75/193/4 80/191/4 125/190/4
f 70/86/4 9/87/4 75/193/4 130/192/4
f 102/194/5 101/195/5 86/196/5 111/197/5
f 111/197/5 86/196/5 81/198/5 116/199/5
f 116/199/5 81/198/5 76/200/5 121/201/5
f 121/201/5 76/200/5 71/202/5 126/203/5
f 126/203/5 71/202/5 1/99/5 67/98/5
f 86/204/2 91/205/2 94/206/2 87/207/2
f 104/152/6 93/208/6 92/209/6 101/149/6
f 101/195/5 92/210/5 91/211/5 86/196/5
f 87/207/2 94/206/2 96/212/2 88/213/2
f 106/154/6 95/214/6 93/208/6 104/152/6
f 88/213/2 96/212/2 98/215/2 89/216/2
f 108/156/6 97/217/6 95/214/6 106/154/6
f 89/216/2 98/215/2 100/218/2 90/219/2
f 90/185/4 100/220/4 99/221/4 110/186/4
f 110/158/6 99/222/6 97/217/6 108/156/6

# 128 faces
